<svg xmlns="http://www.w3.org/2000/svg" xmlns:xlink="http://www.w3.org/1999/xlink" version="1.1" x="0" y="0" viewBox="0 0 220.0 220.0" width="220.0" height="220.0">


<g hape-rendering="crispEdges" >
  <path d="M201.407 58.8062C202.2 60.2214 203.989 60.7265 205.404 59.9344C206.819 59.1422 207.324 57.3528 206.532 55.9376C206.375 55.6562 206.216 55.3757 206.056 55.096C205.252 53.6878 203.458 53.1985 202.05 54.0031C200.642 54.8077 200.152 56.6015 200.957 58.0097C201.108 58.2744 201.258 58.5399 201.407 58.8062Z" fill="#222222"/>
  <path d="M219.982 122.047C220.159 120.434 218.994 118.985 217.382 118.808C215.77 118.632 214.32 119.796 214.144 121.408C214.111 121.712 214.076 122.015 214.041 122.318C213.85 123.928 215.001 125.388 216.612 125.579C218.223 125.769 219.683 124.618 219.873 123.007C219.911 122.687 219.947 122.367 219.982 122.047Z" fill="#222222"/>
  <path d="M210.858 155.435C211.525 153.957 210.868 152.217 209.39 151.55C207.911 150.883 206.172 151.54 205.505 153.018C205.379 153.296 205.253 153.573 205.125 153.849C204.445 155.322 205.087 157.067 206.559 157.747C208.032 158.427 209.777 157.785 210.457 156.313C210.592 156.021 210.725 155.728 210.858 155.435Z" fill="#222222"/>
  <path d="M153.849 14.8748C155.322 15.555 157.067 14.9128 157.747 13.4405C158.427 11.9682 157.785 10.2233 156.312 9.54312C156.02 9.40824 155.728 9.27462 155.435 9.14225C153.957 8.47492 152.217 9.13223 151.55 10.6104C150.883 12.0886 151.54 13.8279 153.018 14.4952C153.296 14.6205 153.573 14.7471 153.849 14.8748Z" fill="#222222"/>
  <path d="M122.318 5.95946C123.928 6.14987 125.388 4.99856 125.579 3.38795C125.769 1.77733 124.618 0.31732 123.007 0.126917C122.687 0.0890982 122.367 0.0526698 122.047 0.0176364C120.434 -0.158573 118.985 1.00555 118.808 2.61778C118.632 4.23001 119.796 5.67982 121.408 5.85603C121.712 5.88919 122.015 5.92367 122.318 5.95946Z" fill="#222222"/>
  <path d="M164.904 206.056C166.312 205.252 166.801 203.458 165.997 202.05C165.192 200.642 163.399 200.152 161.99 200.957C161.726 201.108 161.46 201.258 161.194 201.407C159.779 202.2 159.273 203.989 160.066 205.404C160.858 206.819 162.647 207.325 164.062 206.532C164.344 206.375 164.624 206.216 164.904 206.056Z" fill="#222222"/>
  <path d="M88.6282 7.4653C88.1955 7.55561 87.7628 7.64874 87.3299 7.74469C86.9905 7.81995 86.6518 7.89677 86.3138 7.97515C86.0588 8.03439 85.8038 8.09463 85.5488 8.15585C83.7594 8.58543 81.9922 9.05849 80.2479 9.57359C78.6925 10.0329 77.0592 9.14436 76.5999 7.58894C76.1405 6.03351 77.0291 4.40023 78.5845 3.94091C80.0319 3.51348 81.494 3.11358 82.9702 2.74191C82.9909 2.73624 83.0117 2.73078 83.0326 2.72554C83.6798 2.56319 84.3297 2.4063 84.9823 2.25492C86.6017 1.87865 88.2214 1.54006 89.8405 1.23859C91.4349 0.941706 92.9681 1.99357 93.265 3.588C93.5619 5.18242 92.51 6.71563 90.9156 7.01251C90.7106 7.05068 90.5056 7.08948 90.3005 7.12892C90.2724 7.13518 90.2443 7.14104 90.2158 7.14653C90.0202 7.18426 89.8246 7.22256 89.629 7.26144C89.6092 7.2658 89.5893 7.26997 89.5693 7.27395C89.4191 7.30384 89.2688 7.33407 89.1186 7.36464C88.9684 7.39521 88.8182 7.42608 88.6683 7.45726C88.6549 7.46004 88.6416 7.46272 88.6282 7.4653Z" fill="#222222"/>
  <path d="M131.348 212.539C131.788 212.448 132.228 212.353 132.669 212.255C132.755 212.236 132.84 212.217 132.926 212.198C133.038 212.173 133.15 212.148 133.262 212.122C133.658 212.032 134.054 211.939 134.45 211.844C136.239 211.414 138.007 210.941 139.751 210.426C141.306 209.967 142.94 210.856 143.399 212.411C143.858 213.966 142.97 215.6 141.414 216.059C139.969 216.486 138.509 216.885 137.035 217.256C137.012 217.263 136.989 217.269 136.966 217.275C136.162 217.476 135.353 217.67 134.54 217.855C133.079 218.187 131.619 218.489 130.158 218.761C128.564 219.058 127.031 218.006 126.734 216.412C126.437 214.817 127.489 213.284 129.083 212.987C129.29 212.949 129.497 212.91 129.704 212.87C129.73 212.864 129.756 212.859 129.783 212.854C129.983 212.815 130.183 212.776 130.384 212.736C130.399 212.733 130.415 212.729 130.431 212.726C130.581 212.696 130.731 212.666 130.881 212.635C131.032 212.605 131.182 212.574 131.332 212.543C131.337 212.542 131.342 212.541 131.348 212.539Z" fill="#222222"/>
  <path d="M58.8062 18.5926C60.2214 17.8005 60.7265 16.011 59.9344 14.5958C59.1422 13.1806 57.3528 12.6755 55.9376 13.4677C55.6562 13.6251 55.3757 13.7838 55.096 13.9436C53.6878 14.7482 53.1985 16.542 54.0031 17.9502C54.8077 19.3584 56.6015 19.8477 58.0096 19.0431C58.2744 18.8918 58.5399 18.7417 58.8062 18.5926Z" fill="#222222"/>
  <path d="M97.9534 219.982C99.5657 220.159 101.015 218.995 101.192 217.382C101.368 215.77 100.204 214.32 98.5915 214.144C98.2882 214.111 97.9851 214.076 97.6823 214.041C96.0717 213.85 94.6117 215.002 94.4213 216.612C94.2308 218.223 95.3821 219.683 96.9928 219.873C97.3127 219.911 97.6329 219.947 97.9534 219.982Z" fill="#222222"/>
  <path d="M64.5653 210.858C66.0435 211.525 67.7827 210.868 68.4501 209.39C69.1174 207.912 68.4601 206.172 66.9819 205.505C66.7042 205.38 66.4271 205.253 66.1506 205.125C64.6783 204.445 62.9334 205.087 62.2532 206.56C61.5731 208.032 62.2152 209.777 63.6875 210.457C63.9795 210.592 64.2721 210.725 64.5653 210.858Z" fill="#222222"/>
  <path d="M14.8748 66.1507C15.555 64.6784 14.9128 62.9334 13.4405 62.2533C11.9682 61.5731 10.2233 62.2153 9.54312 63.6876C9.40824 63.9795 9.27461 64.2721 9.14225 64.5653C8.47491 66.0435 9.13223 67.7828 10.6104 68.4501C12.0886 69.1174 13.8278 68.4601 14.4952 66.982C14.6205 66.7043 14.7471 66.4272 14.8748 66.1507Z" fill="#222222"/>
  <path d="M5.95945 97.6823C6.14987 96.0717 4.99856 94.6117 3.38794 94.4213C1.77733 94.2309 0.317324 95.3822 0.126924 96.9928C0.0890949 97.3127 0.0526716 97.633 0.0176378 97.9535C-0.158579 99.5657 1.00555 101.016 2.61777 101.192C4.23 101.368 5.67982 100.204 5.85603 98.5916C5.88919 98.2882 5.92366 97.9851 5.95945 97.6823Z" fill="#222222"/>
  <path d="M13.9436 164.904C14.7482 166.312 16.542 166.802 17.9502 165.997C19.3583 165.192 19.8477 163.399 19.0431 161.99C18.8918 161.726 18.7417 161.46 18.5926 161.194C17.8004 159.779 16.011 159.274 14.5958 160.066C13.1806 160.858 12.6755 162.647 13.4677 164.062C13.6251 164.344 13.7838 164.624 13.9436 164.904Z" fill="#222222"/>
  <path d="M7.47003 131.397C7.55867 131.821 7.65001 132.245 7.74407 132.67C7.79573 132.903 7.84813 133.135 7.90126 133.367C7.98397 133.729 8.06866 134.09 8.15534 134.451C8.58492 136.24 9.05797 138.007 9.57308 139.751C10.0324 141.307 9.14385 142.94 7.58843 143.399C6.033 143.859 4.39972 142.97 3.9404 141.415C3.5135 139.969 3.11405 138.509 2.74277 137.035C2.73657 137.012 2.73062 136.99 2.72492 136.967C2.53394 136.205 2.3505 135.44 2.17471 134.672C1.83017 133.167 1.51811 131.663 1.23808 130.159C0.941197 128.564 1.99306 127.031 3.58748 126.734C5.18191 126.437 6.71511 127.489 7.012 129.084C7.05043 129.29 7.08949 129.497 7.1292 129.703C7.13513 129.73 7.14068 129.757 7.1459 129.784C7.18241 129.973 7.21946 130.162 7.25704 130.351C7.26302 130.378 7.26865 130.404 7.27395 130.431C7.30384 130.581 7.33407 130.731 7.36464 130.881L7.41139 131.11L7.45726 131.332C7.46177 131.353 7.46603 131.375 7.47003 131.397Z" fill="#222222"/>
  <path d="M132.286 4.59036C132.666 3.01365 134.252 2.04343 135.829 2.42332C137.295 2.77656 138.752 3.1594 140.199 3.57133C140.231 3.5794 140.263 3.588 140.295 3.59721C142.288 4.16638 144.261 4.7907 146.213 5.46878C146.245 5.48011 146.277 5.49194 146.309 5.5043C146.516 5.57626 146.722 5.64883 146.928 5.722C148.456 6.26479 149.255 7.94375 148.713 9.47205C148.17 11.0003 146.491 11.7993 144.962 11.2565C141.526 10.0358 138.018 8.99199 134.453 8.13309C132.877 7.7532 131.906 6.16707 132.286 4.59036Z" fill="#222222"/>
  <path d="M9.47154 71.2868C10.9998 71.8296 11.7987 73.5086 11.2559 75.0369C10.0353 78.4737 8.99148 81.9812 8.13258 85.546C7.75269 87.1227 6.16656 88.093 4.58985 87.7131C3.01314 87.3332 2.04292 85.747 2.42281 84.1703C2.77582 82.7052 3.1584 81.2492 3.57002 79.8034C3.57828 79.7702 3.58712 79.737 3.59659 79.7039C4.16576 77.7114 4.79008 75.7384 5.46816 73.7869C5.47974 73.7536 5.49185 73.7206 5.5045 73.688C5.57623 73.4821 5.64856 73.2766 5.72149 73.0712C6.26428 71.5429 7.94324 70.744 9.47154 71.2868Z" fill="#222222"/>
  <path d="M212.41 76.6004C213.966 76.1411 215.599 77.0296 216.058 78.5851C216.486 80.0319 216.885 81.4933 217.257 82.9689C217.263 82.9903 217.268 83.0117 217.274 83.0333C217.447 83.7246 217.614 84.419 217.775 85.1164C218.139 86.6914 218.468 88.2665 218.761 89.841C219.058 91.4355 218.006 92.9687 216.411 93.2655C214.817 93.5624 213.284 92.5106 212.987 90.9161C212.949 90.7107 212.91 90.5052 212.87 90.2998C212.864 90.2722 212.858 90.2444 212.853 90.2165C212.667 89.2549 212.468 88.2929 212.255 87.3306C212.187 87.0275 212.119 86.7251 212.049 86.4233C211.982 86.132 211.913 85.8407 211.843 85.5493C211.414 83.76 210.941 81.9928 210.426 80.2485C209.966 78.693 210.855 77.0597 212.41 76.6004Z" fill="#222222"/>
  <path d="M217.576 135.83C217.223 137.295 216.84 138.751 216.429 140.197C216.42 140.23 216.412 140.263 216.402 140.296C215.833 142.289 215.209 144.262 214.531 146.213C214.519 146.247 214.507 146.28 214.494 146.313C214.449 146.442 214.404 146.571 214.358 146.7C214.331 146.776 214.304 146.852 214.277 146.929C213.735 148.457 212.056 149.256 210.527 148.713C208.999 148.17 208.2 146.491 208.743 144.963C209.963 141.526 211.007 138.019 211.866 134.454C212.246 132.877 213.832 131.907 215.409 132.287C216.986 132.667 217.956 134.253 217.576 135.83Z" fill="#222222"/>
  <path d="M71.2863 210.528C71.8291 209 73.508 208.201 75.0363 208.743C78.4731 209.964 81.9807 211.008 85.5455 211.867C87.1222 212.247 88.0924 213.833 87.7125 215.41C87.3326 216.986 85.7465 217.956 84.1698 217.577C82.7055 217.224 81.2504 216.841 79.8053 216.43C79.7712 216.422 79.7373 216.413 79.7032 216.403C77.7108 215.834 75.7377 215.209 73.7862 214.531C73.7518 214.519 73.7178 214.507 73.6841 214.494C73.4794 214.422 73.2749 214.35 73.0707 214.278C71.5424 213.735 70.7435 212.056 71.2863 210.528Z" fill="#222222"/>
  <path d="M18.2571 148.491C18.2571 149.836 17.1673 150.926 15.8228 150.926C14.4784 150.926 13.3886 149.836 13.3886 148.491C13.3886 147.147 14.4784 146.057 15.8228 146.057C17.1673 146.057 18.2571 147.147 18.2571 148.491Z" fill="#222222"/>
  <path d="M129.017 18.2571C129.017 19.6016 127.927 20.6914 126.583 20.6914C125.238 20.6914 124.148 19.6016 124.148 18.2571C124.148 16.9127 125.238 15.8229 126.583 15.8229C127.927 15.8229 129.017 16.9127 129.017 18.2571Z" fill="#222222"/>
  <path d="M109.543 2.43429C109.543 3.7787 108.453 4.86857 107.109 4.86857C105.764 4.86857 104.674 3.7787 104.674 2.43429C104.674 1.08987 105.764 9.73593e-10 107.109 9.73593e-10C108.453 9.73593e-10 109.543 1.08987 109.543 2.43429Z" fill="#222222"/>
  <path d="M74.2457 15.8229C74.2457 17.1673 73.1558 18.2571 71.8114 18.2571C70.467 18.2571 69.3771 17.1673 69.3771 15.8229C69.3771 14.4784 70.467 13.3886 71.8114 13.3886C73.1558 13.3886 74.2457 14.4784 74.2457 15.8229Z" fill="#222222"/>
  <path d="M114.411 208.131C114.411 209.476 113.321 210.566 111.977 210.566C110.633 210.566 109.543 209.476 109.543 208.131C109.543 206.787 110.633 205.697 111.977 205.697C113.321 205.697 114.411 206.787 114.411 208.131Z" fill="#222222"/>
  <path d="M205.697 132.669C205.697 134.013 204.607 135.103 203.263 135.103C201.918 135.103 200.828 134.013 200.828 132.669C200.828 131.324 201.918 130.234 203.263 130.234C204.607 130.234 205.697 131.324 205.697 132.669Z" fill="#222222"/>
  <path d="M20.6914 82.7657C20.6914 84.1101 19.6015 85.2 18.2571 85.2C16.9127 85.2 15.8228 84.1101 15.8228 82.7657C15.8228 81.4213 16.9127 80.3314 18.2571 80.3314C19.6015 80.3314 20.6914 81.4213 20.6914 82.7657Z" fill="#222222"/>
  <path d="M4.86857 113.194C4.86857 114.539 3.7787 115.629 2.43428 115.629C1.08987 115.629 2.08334e-09 114.539 2.08334e-09 113.194C2.08334e-09 111.85 1.08987 110.76 2.43428 110.76C3.7787 110.76 4.86857 111.85 4.86857 113.194Z" fill="#222222"/>
  <path d="M149.708 204.48C149.708 205.824 148.619 206.914 147.274 206.914C145.93 206.914 144.84 205.824 144.84 204.48C144.84 203.136 145.93 202.046 147.274 202.046C148.619 202.046 149.708 203.136 149.708 204.48Z" fill="#222222"/>
  <path d="M210.566 107.109C210.566 108.453 209.476 109.543 208.131 109.543C206.787 109.543 205.697 108.453 205.697 107.109C205.697 105.764 206.787 104.674 208.131 104.674C209.476 104.674 210.566 105.764 210.566 107.109Z" fill="#222222"/>  
</g>
<g transform="translate(30.0, 30.0)">
<g fill="#222222">
<rect x="44.83198275862068" y="0.6995689655172413" width="4.137413793103448" height="4.137413793103448" rx="0"></rect>
<rect x="61.381637931034476" y="0.6995689655172413" width="4.137413793103448" height="4.137413793103448" rx="0"></rect>
<rect x="72.41474137931034" y="0.6995689655172413" width="4.137413793103448" height="4.137413793103448" rx="0"></rect>
<rect x="50.348534482758616" y="6.216120689655172" width="4.137413793103448" height="4.137413793103448" rx="0"></rect>
<rect x="55.86508620689654" y="6.216120689655172" width="4.137413793103448" height="4.137413793103448" rx="0"></rect>
<rect x="61.381637931034476" y="6.216120689655172" width="4.137413793103448" height="4.137413793103448" rx="0"></rect>
<rect x="77.93129310344827" y="6.216120689655172" width="4.137413793103448" height="4.137413793103448" rx="0"></rect>
<rect x="83.44784482758621" y="6.216120689655172" width="4.137413793103448" height="4.137413793103448" rx="0"></rect>
<rect x="111.03060344827585" y="6.216120689655172" width="4.137413793103448" height="4.137413793103448" rx="0"></rect>
<rect x="55.86508620689654" y="11.732672413793102" width="4.137413793103448" height="4.137413793103448" rx="0"></rect>
<rect x="61.381637931034476" y="11.732672413793102" width="4.137413793103448" height="4.137413793103448" rx="0"></rect>
<rect x="66.89818965517242" y="11.732672413793102" width="4.137413793103448" height="4.137413793103448" rx="0"></rect>
<rect x="72.41474137931034" y="11.732672413793102" width="4.137413793103448" height="4.137413793103448" rx="0"></rect>
<rect x="83.44784482758621" y="11.732672413793102" width="4.137413793103448" height="4.137413793103448" rx="0"></rect>
<rect x="99.9975" y="11.732672413793102" width="4.137413793103448" height="4.137413793103448" rx="0"></rect>
<rect x="50.348534482758616" y="17.249224137931037" width="4.137413793103448" height="4.137413793103448" rx="0"></rect>
<rect x="55.86508620689654" y="17.249224137931037" width="4.137413793103448" height="4.137413793103448" rx="0"></rect>
<rect x="66.89818965517242" y="17.249224137931037" width="4.137413793103448" height="4.137413793103448" rx="0"></rect>
<rect x="77.93129310344827" y="17.249224137931037" width="4.137413793103448" height="4.137413793103448" rx="0"></rect>
<rect x="88.96439655172414" y="17.249224137931037" width="4.137413793103448" height="4.137413793103448" rx="0"></rect>
<rect x="94.48094827586206" y="17.249224137931037" width="4.137413793103448" height="4.137413793103448" rx="0"></rect>
<rect x="111.03060344827585" y="17.249224137931037" width="4.137413793103448" height="4.137413793103448" rx="0"></rect>
<rect x="44.83198275862068" y="22.765775862068967" width="4.137413793103448" height="4.137413793103448" rx="0"></rect>
<rect x="50.348534482758616" y="22.765775862068967" width="4.137413793103448" height="4.137413793103448" rx="0"></rect>
<rect x="66.89818965517242" y="22.765775862068967" width="4.137413793103448" height="4.137413793103448" rx="0"></rect>
<rect x="83.44784482758621" y="22.765775862068967" width="4.137413793103448" height="4.137413793103448" rx="0"></rect>
<rect x="88.96439655172414" y="22.765775862068967" width="4.137413793103448" height="4.137413793103448" rx="0"></rect>
<rect x="94.48094827586206" y="22.765775862068967" width="4.137413793103448" height="4.137413793103448" rx="0"></rect>
<rect x="99.9975" y="22.765775862068967" width="4.137413793103448" height="4.137413793103448" rx="0"></rect>
<rect x="105.51405172413793" y="22.765775862068967" width="4.137413793103448" height="4.137413793103448" rx="0"></rect>
<rect x="111.03060344827585" y="22.765775862068967" width="4.137413793103448" height="4.137413793103448" rx="0"></rect>
<rect x="44.83198275862068" y="28.282327586206897" width="4.137413793103448" height="4.137413793103448" rx="0"></rect>
<rect x="50.348534482758616" y="28.282327586206897" width="4.137413793103448" height="4.137413793103448" rx="0"></rect>
<rect x="55.86508620689654" y="28.282327586206897" width="4.137413793103448" height="4.137413793103448" rx="0"></rect>
<rect x="61.381637931034476" y="28.282327586206897" width="4.137413793103448" height="4.137413793103448" rx="0"></rect>
<rect x="72.41474137931034" y="28.282327586206897" width="4.137413793103448" height="4.137413793103448" rx="0"></rect>
<rect x="88.96439655172414" y="28.282327586206897" width="4.137413793103448" height="4.137413793103448" rx="0"></rect>
<rect x="94.48094827586206" y="28.282327586206897" width="4.137413793103448" height="4.137413793103448" rx="0"></rect>
<rect x="111.03060344827585" y="28.282327586206897" width="4.137413793103448" height="4.137413793103448" rx="0"></rect>
<rect x="44.83198275862068" y="33.79887931034482" width="4.137413793103448" height="4.137413793103448" rx="0"></rect>
<rect x="55.86508620689654" y="33.79887931034482" width="4.137413793103448" height="4.137413793103448" rx="0"></rect>
<rect x="66.89818965517242" y="33.79887931034482" width="4.137413793103448" height="4.137413793103448" rx="0"></rect>
<rect x="77.93129310344827" y="33.79887931034482" width="4.137413793103448" height="4.137413793103448" rx="0"></rect>
<rect x="88.96439655172414" y="33.79887931034482" width="4.137413793103448" height="4.137413793103448" rx="0"></rect>
<rect x="99.9975" y="33.79887931034482" width="4.137413793103448" height="4.137413793103448" rx="0"></rect>
<rect x="111.03060344827585" y="33.79887931034482" width="4.137413793103448" height="4.137413793103448" rx="0"></rect>
<rect x="55.86508620689654" y="39.31543103448275" width="4.137413793103448" height="4.137413793103448" rx="0"></rect>
<rect x="61.381637931034476" y="39.31543103448275" width="4.137413793103448" height="4.137413793103448" rx="0"></rect>
<rect x="72.41474137931034" y="39.31543103448275" width="4.137413793103448" height="4.137413793103448" rx="0"></rect>
<rect x="94.48094827586206" y="39.31543103448275" width="4.137413793103448" height="4.137413793103448" rx="0"></rect>
<rect x="99.9975" y="39.31543103448275" width="4.137413793103448" height="4.137413793103448" rx="0"></rect>
<rect x="111.03060344827585" y="39.31543103448275" width="4.137413793103448" height="4.137413793103448" rx="0"></rect>
<rect x="6.216120689655172" y="44.83198275862068" width="4.137413793103448" height="4.137413793103448" rx="0"></rect>
<rect x="11.732672413793102" y="44.83198275862068" width="4.137413793103448" height="4.137413793103448" rx="0"></rect>
<rect x="17.249224137931037" y="44.83198275862068" width="4.137413793103448" height="4.137413793103448" rx="0"></rect>
<rect x="22.765775862068967" y="44.83198275862068" width="4.137413793103448" height="4.137413793103448" rx="0"></rect>
<rect x="28.282327586206897" y="44.83198275862068" width="4.137413793103448" height="4.137413793103448" rx="0"></rect>
<rect x="33.79887931034482" y="44.83198275862068" width="4.137413793103448" height="4.137413793103448" rx="0"></rect>
<rect x="39.31543103448275" y="44.83198275862068" width="4.137413793103448" height="4.137413793103448" rx="0"></rect>
<rect x="50.348534482758616" y="44.83198275862068" width="4.137413793103448" height="4.137413793103448" rx="0"></rect>
<rect x="127.58025862068965" y="44.83198275862068" width="4.137413793103448" height="4.137413793103448" rx="0"></rect>
<rect x="133.0968103448276" y="44.83198275862068" width="4.137413793103448" height="4.137413793103448" rx="0"></rect>
<rect x="155.1630172413793" y="44.83198275862068" width="4.137413793103448" height="4.137413793103448" rx="0"></rect>
<rect x="0.6995689655172413" y="50.348534482758616" width="4.137413793103448" height="4.137413793103448" rx="0"></rect>
<rect x="17.249224137931037" y="50.348534482758616" width="4.137413793103448" height="4.137413793103448" rx="0"></rect>
<rect x="22.765775862068967" y="50.348534482758616" width="4.137413793103448" height="4.137413793103448" rx="0"></rect>
<rect x="28.282327586206897" y="50.348534482758616" width="4.137413793103448" height="4.137413793103448" rx="0"></rect>
<rect x="39.31543103448275" y="50.348534482758616" width="4.137413793103448" height="4.137413793103448" rx="0"></rect>
<rect x="50.348534482758616" y="50.348534482758616" width="4.137413793103448" height="4.137413793103448" rx="0"></rect>
<rect x="61.381637931034476" y="50.348534482758616" width="4.137413793103448" height="4.137413793103448" rx="0"></rect>
<rect x="66.89818965517242" y="50.348534482758616" width="4.137413793103448" height="4.137413793103448" rx="0"></rect>
<rect x="83.44784482758621" y="50.348534482758616" width="4.137413793103448" height="4.137413793103448" rx="0"></rect>
<rect x="88.96439655172414" y="50.348534482758616" width="4.137413793103448" height="4.137413793103448" rx="0"></rect>
<rect x="99.9975" y="50.348534482758616" width="4.137413793103448" height="4.137413793103448" rx="0"></rect>
<rect x="111.03060344827585" y="50.348534482758616" width="4.137413793103448" height="4.137413793103448" rx="0"></rect>
<rect x="116.5471551724138" y="50.348534482758616" width="4.137413793103448" height="4.137413793103448" rx="0"></rect>
<rect x="122.06370689655172" y="50.348534482758616" width="4.137413793103448" height="4.137413793103448" rx="0"></rect>
<rect x="133.0968103448276" y="50.348534482758616" width="4.137413793103448" height="4.137413793103448" rx="0"></rect>
<rect x="155.1630172413793" y="50.348534482758616" width="4.137413793103448" height="4.137413793103448" rx="0"></rect>
<rect x="0.6995689655172413" y="55.86508620689654" width="4.137413793103448" height="4.137413793103448" rx="0"></rect>
<rect x="6.216120689655172" y="55.86508620689654" width="4.137413793103448" height="4.137413793103448" rx="0"></rect>
<rect x="22.765775862068967" y="55.86508620689654" width="4.137413793103448" height="4.137413793103448" rx="0"></rect>
<rect x="33.79887931034482" y="55.86508620689654" width="4.137413793103448" height="4.137413793103448" rx="0"></rect>
<rect x="39.31543103448275" y="55.86508620689654" width="4.137413793103448" height="4.137413793103448" rx="0"></rect>
<rect x="44.83198275862068" y="55.86508620689654" width="4.137413793103448" height="4.137413793103448" rx="0"></rect>
<rect x="50.348534482758616" y="55.86508620689654" width="4.137413793103448" height="4.137413793103448" rx="0"></rect>
<rect x="61.381637931034476" y="55.86508620689654" width="4.137413793103448" height="4.137413793103448" rx="0"></rect>
<rect x="72.41474137931034" y="55.86508620689654" width="4.137413793103448" height="4.137413793103448" rx="0"></rect>
<rect x="77.93129310344827" y="55.86508620689654" width="4.137413793103448" height="4.137413793103448" rx="0"></rect>
<rect x="83.44784482758621" y="55.86508620689654" width="4.137413793103448" height="4.137413793103448" rx="0"></rect>
<rect x="88.96439655172414" y="55.86508620689654" width="4.137413793103448" height="4.137413793103448" rx="0"></rect>
<rect x="105.51405172413793" y="55.86508620689654" width="4.137413793103448" height="4.137413793103448" rx="0"></rect>
<rect x="116.5471551724138" y="55.86508620689654" width="4.137413793103448" height="4.137413793103448" rx="0"></rect>
<rect x="122.06370689655172" y="55.86508620689654" width="4.137413793103448" height="4.137413793103448" rx="0"></rect>
<rect x="127.58025862068965" y="55.86508620689654" width="4.137413793103448" height="4.137413793103448" rx="0"></rect>
<rect x="138.6133620689655" y="55.86508620689654" width="4.137413793103448" height="4.137413793103448" rx="0"></rect>
<rect x="144.12991379310344" y="55.86508620689654" width="4.137413793103448" height="4.137413793103448" rx="0"></rect>
<rect x="0.6995689655172413" y="61.381637931034476" width="4.137413793103448" height="4.137413793103448" rx="0"></rect>
<rect x="11.732672413793102" y="61.381637931034476" width="4.137413793103448" height="4.137413793103448" rx="0"></rect>
<rect x="28.282327586206897" y="61.381637931034476" width="4.137413793103448" height="4.137413793103448" rx="0"></rect>
<rect x="50.348534482758616" y="61.381637931034476" width="4.137413793103448" height="4.137413793103448" rx="0"></rect>
<rect x="55.86508620689654" y="61.381637931034476" width="4.137413793103448" height="4.137413793103448" rx="0"></rect>
<rect x="66.89818965517242" y="61.381637931034476" width="4.137413793103448" height="4.137413793103448" rx="0"></rect>
<rect x="83.44784482758621" y="61.381637931034476" width="4.137413793103448" height="4.137413793103448" rx="0"></rect>
<rect x="88.96439655172414" y="61.381637931034476" width="4.137413793103448" height="4.137413793103448" rx="0"></rect>
<rect x="105.51405172413793" y="61.381637931034476" width="4.137413793103448" height="4.137413793103448" rx="0"></rect>
<rect x="111.03060344827585" y="61.381637931034476" width="4.137413793103448" height="4.137413793103448" rx="0"></rect>
<rect x="116.5471551724138" y="61.381637931034476" width="4.137413793103448" height="4.137413793103448" rx="0"></rect>
<rect x="122.06370689655172" y="61.381637931034476" width="4.137413793103448" height="4.137413793103448" rx="0"></rect>
<rect x="133.0968103448276" y="61.381637931034476" width="4.137413793103448" height="4.137413793103448" rx="0"></rect>
<rect x="138.6133620689655" y="61.381637931034476" width="4.137413793103448" height="4.137413793103448" rx="0"></rect>
<rect x="149.64646551724138" y="61.381637931034476" width="4.137413793103448" height="4.137413793103448" rx="0"></rect>
<rect x="0.6995689655172413" y="66.89818965517242" width="4.137413793103448" height="4.137413793103448" rx="0"></rect>
<rect x="6.216120689655172" y="66.89818965517242" width="4.137413793103448" height="4.137413793103448" rx="0"></rect>
<rect x="11.732672413793102" y="66.89818965517242" width="4.137413793103448" height="4.137413793103448" rx="0"></rect>
<rect x="22.765775862068967" y="66.89818965517242" width="4.137413793103448" height="4.137413793103448" rx="0"></rect>
<rect x="33.79887931034482" y="66.89818965517242" width="4.137413793103448" height="4.137413793103448" rx="0"></rect>
<rect x="61.381637931034476" y="66.89818965517242" width="4.137413793103448" height="4.137413793103448" rx="0"></rect>
<rect x="66.89818965517242" y="66.89818965517242" width="4.137413793103448" height="4.137413793103448" rx="0"></rect>
<rect x="72.41474137931034" y="66.89818965517242" width="4.137413793103448" height="4.137413793103448" rx="0"></rect>
<rect x="94.48094827586206" y="66.89818965517242" width="4.137413793103448" height="4.137413793103448" rx="0"></rect>
<rect x="105.51405172413793" y="66.89818965517242" width="4.137413793103448" height="4.137413793103448" rx="0"></rect>
<rect x="116.5471551724138" y="66.89818965517242" width="4.137413793103448" height="4.137413793103448" rx="0"></rect>
<rect x="127.58025862068965" y="66.89818965517242" width="4.137413793103448" height="4.137413793103448" rx="0"></rect>
<rect x="144.12991379310344" y="66.89818965517242" width="4.137413793103448" height="4.137413793103448" rx="0"></rect>
<rect x="149.64646551724138" y="66.89818965517242" width="4.137413793103448" height="4.137413793103448" rx="0"></rect>
<rect x="155.1630172413793" y="66.89818965517242" width="4.137413793103448" height="4.137413793103448" rx="0"></rect>
<rect x="17.249224137931037" y="72.41474137931034" width="4.137413793103448" height="4.137413793103448" rx="0"></rect>
<rect x="22.765775862068967" y="72.41474137931034" width="4.137413793103448" height="4.137413793103448" rx="0"></rect>
<rect x="39.31543103448275" y="72.41474137931034" width="4.137413793103448" height="4.137413793103448" rx="0"></rect>
<rect x="50.348534482758616" y="72.41474137931034" width="4.137413793103448" height="4.137413793103448" rx="0"></rect>
<rect x="61.381637931034476" y="72.41474137931034" width="4.137413793103448" height="4.137413793103448" rx="0"></rect>
<rect x="72.41474137931034" y="72.41474137931034" width="4.137413793103448" height="4.137413793103448" rx="0"></rect>
<rect x="77.93129310344827" y="72.41474137931034" width="4.137413793103448" height="4.137413793103448" rx="0"></rect>
<rect x="83.44784482758621" y="72.41474137931034" width="4.137413793103448" height="4.137413793103448" rx="0"></rect>
<rect x="105.51405172413793" y="72.41474137931034" width="4.137413793103448" height="4.137413793103448" rx="0"></rect>
<rect x="111.03060344827585" y="72.41474137931034" width="4.137413793103448" height="4.137413793103448" rx="0"></rect>
<rect x="116.5471551724138" y="72.41474137931034" width="4.137413793103448" height="4.137413793103448" rx="0"></rect>
<rect x="122.06370689655172" y="72.41474137931034" width="4.137413793103448" height="4.137413793103448" rx="0"></rect>
<rect x="133.0968103448276" y="72.41474137931034" width="4.137413793103448" height="4.137413793103448" rx="0"></rect>
<rect x="138.6133620689655" y="72.41474137931034" width="4.137413793103448" height="4.137413793103448" rx="0"></rect>
<rect x="149.64646551724138" y="72.41474137931034" width="4.137413793103448" height="4.137413793103448" rx="0"></rect>
<rect x="155.1630172413793" y="72.41474137931034" width="4.137413793103448" height="4.137413793103448" rx="0"></rect>
<rect x="0.6995689655172413" y="77.93129310344827" width="4.137413793103448" height="4.137413793103448" rx="0"></rect>
<rect x="22.765775862068967" y="77.93129310344827" width="4.137413793103448" height="4.137413793103448" rx="0"></rect>
<rect x="33.79887931034482" y="77.93129310344827" width="4.137413793103448" height="4.137413793103448" rx="0"></rect>
<rect x="50.348534482758616" y="77.93129310344827" width="4.137413793103448" height="4.137413793103448" rx="0"></rect>
<rect x="55.86508620689654" y="77.93129310344827" width="4.137413793103448" height="4.137413793103448" rx="0"></rect>
<rect x="61.381637931034476" y="77.93129310344827" width="4.137413793103448" height="4.137413793103448" rx="0"></rect>
<rect x="72.41474137931034" y="77.93129310344827" width="4.137413793103448" height="4.137413793103448" rx="0"></rect>
<rect x="88.96439655172414" y="77.93129310344827" width="4.137413793103448" height="4.137413793103448" rx="0"></rect>
<rect x="99.9975" y="77.93129310344827" width="4.137413793103448" height="4.137413793103448" rx="0"></rect>
<rect x="122.06370689655172" y="77.93129310344827" width="4.137413793103448" height="4.137413793103448" rx="0"></rect>
<rect x="127.58025862068965" y="77.93129310344827" width="4.137413793103448" height="4.137413793103448" rx="0"></rect>
<rect x="6.216120689655172" y="83.44784482758621" width="4.137413793103448" height="4.137413793103448" rx="0"></rect>
<rect x="17.249224137931037" y="83.44784482758621" width="4.137413793103448" height="4.137413793103448" rx="0"></rect>
<rect x="28.282327586206897" y="83.44784482758621" width="4.137413793103448" height="4.137413793103448" rx="0"></rect>
<rect x="44.83198275862068" y="83.44784482758621" width="4.137413793103448" height="4.137413793103448" rx="0"></rect>
<rect x="77.93129310344827" y="83.44784482758621" width="4.137413793103448" height="4.137413793103448" rx="0"></rect>
<rect x="83.44784482758621" y="83.44784482758621" width="4.137413793103448" height="4.137413793103448" rx="0"></rect>
<rect x="88.96439655172414" y="83.44784482758621" width="4.137413793103448" height="4.137413793103448" rx="0"></rect>
<rect x="122.06370689655172" y="83.44784482758621" width="4.137413793103448" height="4.137413793103448" rx="0"></rect>
<rect x="133.0968103448276" y="83.44784482758621" width="4.137413793103448" height="4.137413793103448" rx="0"></rect>
<rect x="138.6133620689655" y="83.44784482758621" width="4.137413793103448" height="4.137413793103448" rx="0"></rect>
<rect x="149.64646551724138" y="83.44784482758621" width="4.137413793103448" height="4.137413793103448" rx="0"></rect>
<rect x="155.1630172413793" y="83.44784482758621" width="4.137413793103448" height="4.137413793103448" rx="0"></rect>
<rect x="0.6995689655172413" y="88.96439655172414" width="4.137413793103448" height="4.137413793103448" rx="0"></rect>
<rect x="6.216120689655172" y="88.96439655172414" width="4.137413793103448" height="4.137413793103448" rx="0"></rect>
<rect x="28.282327586206897" y="88.96439655172414" width="4.137413793103448" height="4.137413793103448" rx="0"></rect>
<rect x="33.79887931034482" y="88.96439655172414" width="4.137413793103448" height="4.137413793103448" rx="0"></rect>
<rect x="44.83198275862068" y="88.96439655172414" width="4.137413793103448" height="4.137413793103448" rx="0"></rect>
<rect x="55.86508620689654" y="88.96439655172414" width="4.137413793103448" height="4.137413793103448" rx="0"></rect>
<rect x="66.89818965517242" y="88.96439655172414" width="4.137413793103448" height="4.137413793103448" rx="0"></rect>
<rect x="77.93129310344827" y="88.96439655172414" width="4.137413793103448" height="4.137413793103448" rx="0"></rect>
<rect x="99.9975" y="88.96439655172414" width="4.137413793103448" height="4.137413793103448" rx="0"></rect>
<rect x="111.03060344827585" y="88.96439655172414" width="4.137413793103448" height="4.137413793103448" rx="0"></rect>
<rect x="116.5471551724138" y="88.96439655172414" width="4.137413793103448" height="4.137413793103448" rx="0"></rect>
<rect x="127.58025862068965" y="88.96439655172414" width="4.137413793103448" height="4.137413793103448" rx="0"></rect>
<rect x="138.6133620689655" y="88.96439655172414" width="4.137413793103448" height="4.137413793103448" rx="0"></rect>
<rect x="144.12991379310344" y="88.96439655172414" width="4.137413793103448" height="4.137413793103448" rx="0"></rect>
<rect x="155.1630172413793" y="88.96439655172414" width="4.137413793103448" height="4.137413793103448" rx="0"></rect>
<rect x="0.6995689655172413" y="94.48094827586206" width="4.137413793103448" height="4.137413793103448" rx="0"></rect>
<rect x="6.216120689655172" y="94.48094827586206" width="4.137413793103448" height="4.137413793103448" rx="0"></rect>
<rect x="11.732672413793102" y="94.48094827586206" width="4.137413793103448" height="4.137413793103448" rx="0"></rect>
<rect x="28.282327586206897" y="94.48094827586206" width="4.137413793103448" height="4.137413793103448" rx="0"></rect>
<rect x="44.83198275862068" y="94.48094827586206" width="4.137413793103448" height="4.137413793103448" rx="0"></rect>
<rect x="66.89818965517242" y="94.48094827586206" width="4.137413793103448" height="4.137413793103448" rx="0"></rect>
<rect x="72.41474137931034" y="94.48094827586206" width="4.137413793103448" height="4.137413793103448" rx="0"></rect>
<rect x="77.93129310344827" y="94.48094827586206" width="4.137413793103448" height="4.137413793103448" rx="0"></rect>
<rect x="83.44784482758621" y="94.48094827586206" width="4.137413793103448" height="4.137413793103448" rx="0"></rect>
<rect x="88.96439655172414" y="94.48094827586206" width="4.137413793103448" height="4.137413793103448" rx="0"></rect>
<rect x="116.5471551724138" y="94.48094827586206" width="4.137413793103448" height="4.137413793103448" rx="0"></rect>
<rect x="127.58025862068965" y="94.48094827586206" width="4.137413793103448" height="4.137413793103448" rx="0"></rect>
<rect x="133.0968103448276" y="94.48094827586206" width="4.137413793103448" height="4.137413793103448" rx="0"></rect>
<rect x="138.6133620689655" y="94.48094827586206" width="4.137413793103448" height="4.137413793103448" rx="0"></rect>
<rect x="144.12991379310344" y="94.48094827586206" width="4.137413793103448" height="4.137413793103448" rx="0"></rect>
<rect x="149.64646551724138" y="94.48094827586206" width="4.137413793103448" height="4.137413793103448" rx="0"></rect>
<rect x="155.1630172413793" y="94.48094827586206" width="4.137413793103448" height="4.137413793103448" rx="0"></rect>
<rect x="0.6995689655172413" y="99.9975" width="4.137413793103448" height="4.137413793103448" rx="0"></rect>
<rect x="11.732672413793102" y="99.9975" width="4.137413793103448" height="4.137413793103448" rx="0"></rect>
<rect x="17.249224137931037" y="99.9975" width="4.137413793103448" height="4.137413793103448" rx="0"></rect>
<rect x="28.282327586206897" y="99.9975" width="4.137413793103448" height="4.137413793103448" rx="0"></rect>
<rect x="33.79887931034482" y="99.9975" width="4.137413793103448" height="4.137413793103448" rx="0"></rect>
<rect x="44.83198275862068" y="99.9975" width="4.137413793103448" height="4.137413793103448" rx="0"></rect>
<rect x="50.348534482758616" y="99.9975" width="4.137413793103448" height="4.137413793103448" rx="0"></rect>
<rect x="72.41474137931034" y="99.9975" width="4.137413793103448" height="4.137413793103448" rx="0"></rect>
<rect x="94.48094827586206" y="99.9975" width="4.137413793103448" height="4.137413793103448" rx="0"></rect>
<rect x="99.9975" y="99.9975" width="4.137413793103448" height="4.137413793103448" rx="0"></rect>
<rect x="111.03060344827585" y="99.9975" width="4.137413793103448" height="4.137413793103448" rx="0"></rect>
<rect x="122.06370689655172" y="99.9975" width="4.137413793103448" height="4.137413793103448" rx="0"></rect>
<rect x="127.58025862068965" y="99.9975" width="4.137413793103448" height="4.137413793103448" rx="0"></rect>
<rect x="133.0968103448276" y="99.9975" width="4.137413793103448" height="4.137413793103448" rx="0"></rect>
<rect x="138.6133620689655" y="99.9975" width="4.137413793103448" height="4.137413793103448" rx="0"></rect>
<rect x="144.12991379310344" y="99.9975" width="4.137413793103448" height="4.137413793103448" rx="0"></rect>
<rect x="0.6995689655172413" y="105.51405172413793" width="4.137413793103448" height="4.137413793103448" rx="0"></rect>
<rect x="11.732672413793102" y="105.51405172413793" width="4.137413793103448" height="4.137413793103448" rx="0"></rect>
<rect x="39.31543103448275" y="105.51405172413793" width="4.137413793103448" height="4.137413793103448" rx="0"></rect>
<rect x="50.348534482758616" y="105.51405172413793" width="4.137413793103448" height="4.137413793103448" rx="0"></rect>
<rect x="55.86508620689654" y="105.51405172413793" width="4.137413793103448" height="4.137413793103448" rx="0"></rect>
<rect x="61.381637931034476" y="105.51405172413793" width="4.137413793103448" height="4.137413793103448" rx="0"></rect>
<rect x="66.89818965517242" y="105.51405172413793" width="4.137413793103448" height="4.137413793103448" rx="0"></rect>
<rect x="88.96439655172414" y="105.51405172413793" width="4.137413793103448" height="4.137413793103448" rx="0"></rect>
<rect x="99.9975" y="105.51405172413793" width="4.137413793103448" height="4.137413793103448" rx="0"></rect>
<rect x="122.06370689655172" y="105.51405172413793" width="4.137413793103448" height="4.137413793103448" rx="0"></rect>
<rect x="127.58025862068965" y="105.51405172413793" width="4.137413793103448" height="4.137413793103448" rx="0"></rect>
<rect x="133.0968103448276" y="105.51405172413793" width="4.137413793103448" height="4.137413793103448" rx="0"></rect>
<rect x="138.6133620689655" y="105.51405172413793" width="4.137413793103448" height="4.137413793103448" rx="0"></rect>
<rect x="155.1630172413793" y="105.51405172413793" width="4.137413793103448" height="4.137413793103448" rx="0"></rect>
<rect x="0.6995689655172413" y="111.03060344827585" width="4.137413793103448" height="4.137413793103448" rx="0"></rect>
<rect x="11.732672413793102" y="111.03060344827585" width="4.137413793103448" height="4.137413793103448" rx="0"></rect>
<rect x="28.282327586206897" y="111.03060344827585" width="4.137413793103448" height="4.137413793103448" rx="0"></rect>
<rect x="33.79887931034482" y="111.03060344827585" width="4.137413793103448" height="4.137413793103448" rx="0"></rect>
<rect x="39.31543103448275" y="111.03060344827585" width="4.137413793103448" height="4.137413793103448" rx="0"></rect>
<rect x="44.83198275862068" y="111.03060344827585" width="4.137413793103448" height="4.137413793103448" rx="0"></rect>
<rect x="61.381637931034476" y="111.03060344827585" width="4.137413793103448" height="4.137413793103448" rx="0"></rect>
<rect x="72.41474137931034" y="111.03060344827585" width="4.137413793103448" height="4.137413793103448" rx="0"></rect>
<rect x="77.93129310344827" y="111.03060344827585" width="4.137413793103448" height="4.137413793103448" rx="0"></rect>
<rect x="88.96439655172414" y="111.03060344827585" width="4.137413793103448" height="4.137413793103448" rx="0"></rect>
<rect x="94.48094827586206" y="111.03060344827585" width="4.137413793103448" height="4.137413793103448" rx="0"></rect>
<rect x="111.03060344827585" y="111.03060344827585" width="4.137413793103448" height="4.137413793103448" rx="0"></rect>
<rect x="116.5471551724138" y="111.03060344827585" width="4.137413793103448" height="4.137413793103448" rx="0"></rect>
<rect x="122.06370689655172" y="111.03060344827585" width="4.137413793103448" height="4.137413793103448" rx="0"></rect>
<rect x="127.58025862068965" y="111.03060344827585" width="4.137413793103448" height="4.137413793103448" rx="0"></rect>
<rect x="133.0968103448276" y="111.03060344827585" width="4.137413793103448" height="4.137413793103448" rx="0"></rect>
<rect x="144.12991379310344" y="111.03060344827585" width="4.137413793103448" height="4.137413793103448" rx="0"></rect>
<rect x="44.83198275862068" y="116.5471551724138" width="4.137413793103448" height="4.137413793103448" rx="0"></rect>
<rect x="50.348534482758616" y="116.5471551724138" width="4.137413793103448" height="4.137413793103448" rx="0"></rect>
<rect x="72.41474137931034" y="116.5471551724138" width="4.137413793103448" height="4.137413793103448" rx="0"></rect>
<rect x="77.93129310344827" y="116.5471551724138" width="4.137413793103448" height="4.137413793103448" rx="0"></rect>
<rect x="88.96439655172414" y="116.5471551724138" width="4.137413793103448" height="4.137413793103448" rx="0"></rect>
<rect x="94.48094827586206" y="116.5471551724138" width="4.137413793103448" height="4.137413793103448" rx="0"></rect>
<rect x="105.51405172413793" y="116.5471551724138" width="4.137413793103448" height="4.137413793103448" rx="0"></rect>
<rect x="111.03060344827585" y="116.5471551724138" width="4.137413793103448" height="4.137413793103448" rx="0"></rect>
<rect x="133.0968103448276" y="116.5471551724138" width="4.137413793103448" height="4.137413793103448" rx="0"></rect>
<rect x="138.6133620689655" y="116.5471551724138" width="4.137413793103448" height="4.137413793103448" rx="0"></rect>
<rect x="149.64646551724138" y="116.5471551724138" width="4.137413793103448" height="4.137413793103448" rx="0"></rect>
<rect x="155.1630172413793" y="116.5471551724138" width="4.137413793103448" height="4.137413793103448" rx="0"></rect>
<rect x="44.83198275862068" y="122.06370689655172" width="4.137413793103448" height="4.137413793103448" rx="0"></rect>
<rect x="50.348534482758616" y="122.06370689655172" width="4.137413793103448" height="4.137413793103448" rx="0"></rect>
<rect x="55.86508620689654" y="122.06370689655172" width="4.137413793103448" height="4.137413793103448" rx="0"></rect>
<rect x="72.41474137931034" y="122.06370689655172" width="4.137413793103448" height="4.137413793103448" rx="0"></rect>
<rect x="83.44784482758621" y="122.06370689655172" width="4.137413793103448" height="4.137413793103448" rx="0"></rect>
<rect x="94.48094827586206" y="122.06370689655172" width="4.137413793103448" height="4.137413793103448" rx="0"></rect>
<rect x="105.51405172413793" y="122.06370689655172" width="4.137413793103448" height="4.137413793103448" rx="0"></rect>
<rect x="111.03060344827585" y="122.06370689655172" width="4.137413793103448" height="4.137413793103448" rx="0"></rect>
<rect x="122.06370689655172" y="122.06370689655172" width="4.137413793103448" height="4.137413793103448" rx="0"></rect>
<rect x="133.0968103448276" y="122.06370689655172" width="4.137413793103448" height="4.137413793103448" rx="0"></rect>
<rect x="149.64646551724138" y="122.06370689655172" width="4.137413793103448" height="4.137413793103448" rx="0"></rect>
<rect x="44.83198275862068" y="127.58025862068965" width="4.137413793103448" height="4.137413793103448" rx="0"></rect>
<rect x="61.381637931034476" y="127.58025862068965" width="4.137413793103448" height="4.137413793103448" rx="0"></rect>
<rect x="72.41474137931034" y="127.58025862068965" width="4.137413793103448" height="4.137413793103448" rx="0"></rect>
<rect x="83.44784482758621" y="127.58025862068965" width="4.137413793103448" height="4.137413793103448" rx="0"></rect>
<rect x="94.48094827586206" y="127.58025862068965" width="4.137413793103448" height="4.137413793103448" rx="0"></rect>
<rect x="99.9975" y="127.58025862068965" width="4.137413793103448" height="4.137413793103448" rx="0"></rect>
<rect x="105.51405172413793" y="127.58025862068965" width="4.137413793103448" height="4.137413793103448" rx="0"></rect>
<rect x="111.03060344827585" y="127.58025862068965" width="4.137413793103448" height="4.137413793103448" rx="0"></rect>
<rect x="133.0968103448276" y="127.58025862068965" width="4.137413793103448" height="4.137413793103448" rx="0"></rect>
<rect x="138.6133620689655" y="127.58025862068965" width="4.137413793103448" height="4.137413793103448" rx="0"></rect>
<rect x="155.1630172413793" y="127.58025862068965" width="4.137413793103448" height="4.137413793103448" rx="0"></rect>
<rect x="44.83198275862068" y="133.0968103448276" width="4.137413793103448" height="4.137413793103448" rx="0"></rect>
<rect x="55.86508620689654" y="133.0968103448276" width="4.137413793103448" height="4.137413793103448" rx="0"></rect>
<rect x="61.381637931034476" y="133.0968103448276" width="4.137413793103448" height="4.137413793103448" rx="0"></rect>
<rect x="72.41474137931034" y="133.0968103448276" width="4.137413793103448" height="4.137413793103448" rx="0"></rect>
<rect x="77.93129310344827" y="133.0968103448276" width="4.137413793103448" height="4.137413793103448" rx="0"></rect>
<rect x="88.96439655172414" y="133.0968103448276" width="4.137413793103448" height="4.137413793103448" rx="0"></rect>
<rect x="111.03060344827585" y="133.0968103448276" width="4.137413793103448" height="4.137413793103448" rx="0"></rect>
<rect x="116.5471551724138" y="133.0968103448276" width="4.137413793103448" height="4.137413793103448" rx="0"></rect>
<rect x="122.06370689655172" y="133.0968103448276" width="4.137413793103448" height="4.137413793103448" rx="0"></rect>
<rect x="127.58025862068965" y="133.0968103448276" width="4.137413793103448" height="4.137413793103448" rx="0"></rect>
<rect x="133.0968103448276" y="133.0968103448276" width="4.137413793103448" height="4.137413793103448" rx="0"></rect>
<rect x="138.6133620689655" y="133.0968103448276" width="4.137413793103448" height="4.137413793103448" rx="0"></rect>
<rect x="144.12991379310344" y="133.0968103448276" width="4.137413793103448" height="4.137413793103448" rx="0"></rect>
<rect x="149.64646551724138" y="133.0968103448276" width="4.137413793103448" height="4.137413793103448" rx="0"></rect>
<rect x="44.83198275862068" y="138.6133620689655" width="4.137413793103448" height="4.137413793103448" rx="0"></rect>
<rect x="50.348534482758616" y="138.6133620689655" width="4.137413793103448" height="4.137413793103448" rx="0"></rect>
<rect x="61.381637931034476" y="138.6133620689655" width="4.137413793103448" height="4.137413793103448" rx="0"></rect>
<rect x="66.89818965517242" y="138.6133620689655" width="4.137413793103448" height="4.137413793103448" rx="0"></rect>
<rect x="77.93129310344827" y="138.6133620689655" width="4.137413793103448" height="4.137413793103448" rx="0"></rect>
<rect x="83.44784482758621" y="138.6133620689655" width="4.137413793103448" height="4.137413793103448" rx="0"></rect>
<rect x="94.48094827586206" y="138.6133620689655" width="4.137413793103448" height="4.137413793103448" rx="0"></rect>
<rect x="99.9975" y="138.6133620689655" width="4.137413793103448" height="4.137413793103448" rx="0"></rect>
<rect x="105.51405172413793" y="138.6133620689655" width="4.137413793103448" height="4.137413793103448" rx="0"></rect>
<rect x="111.03060344827585" y="138.6133620689655" width="4.137413793103448" height="4.137413793103448" rx="0"></rect>
<rect x="116.5471551724138" y="138.6133620689655" width="4.137413793103448" height="4.137413793103448" rx="0"></rect>
<rect x="127.58025862068965" y="138.6133620689655" width="4.137413793103448" height="4.137413793103448" rx="0"></rect>
<rect x="138.6133620689655" y="138.6133620689655" width="4.137413793103448" height="4.137413793103448" rx="0"></rect>
<rect x="44.83198275862068" y="144.12991379310344" width="4.137413793103448" height="4.137413793103448" rx="0"></rect>
<rect x="50.348534482758616" y="144.12991379310344" width="4.137413793103448" height="4.137413793103448" rx="0"></rect>
<rect x="55.86508620689654" y="144.12991379310344" width="4.137413793103448" height="4.137413793103448" rx="0"></rect>
<rect x="61.381637931034476" y="144.12991379310344" width="4.137413793103448" height="4.137413793103448" rx="0"></rect>
<rect x="83.44784482758621" y="144.12991379310344" width="4.137413793103448" height="4.137413793103448" rx="0"></rect>
<rect x="88.96439655172414" y="144.12991379310344" width="4.137413793103448" height="4.137413793103448" rx="0"></rect>
<rect x="99.9975" y="144.12991379310344" width="4.137413793103448" height="4.137413793103448" rx="0"></rect>
<rect x="105.51405172413793" y="144.12991379310344" width="4.137413793103448" height="4.137413793103448" rx="0"></rect>
<rect x="111.03060344827585" y="144.12991379310344" width="4.137413793103448" height="4.137413793103448" rx="0"></rect>
<rect x="116.5471551724138" y="144.12991379310344" width="4.137413793103448" height="4.137413793103448" rx="0"></rect>
<rect x="122.06370689655172" y="144.12991379310344" width="4.137413793103448" height="4.137413793103448" rx="0"></rect>
<rect x="127.58025862068965" y="144.12991379310344" width="4.137413793103448" height="4.137413793103448" rx="0"></rect>
<rect x="133.0968103448276" y="144.12991379310344" width="4.137413793103448" height="4.137413793103448" rx="0"></rect>
<rect x="149.64646551724138" y="144.12991379310344" width="4.137413793103448" height="4.137413793103448" rx="0"></rect>
<rect x="44.83198275862068" y="149.64646551724138" width="4.137413793103448" height="4.137413793103448" rx="0"></rect>
<rect x="55.86508620689654" y="149.64646551724138" width="4.137413793103448" height="4.137413793103448" rx="0"></rect>
<rect x="66.89818965517242" y="149.64646551724138" width="4.137413793103448" height="4.137413793103448" rx="0"></rect>
<rect x="72.41474137931034" y="149.64646551724138" width="4.137413793103448" height="4.137413793103448" rx="0"></rect>
<rect x="83.44784482758621" y="149.64646551724138" width="4.137413793103448" height="4.137413793103448" rx="0"></rect>
<rect x="122.06370689655172" y="149.64646551724138" width="4.137413793103448" height="4.137413793103448" rx="0"></rect>
<rect x="133.0968103448276" y="149.64646551724138" width="4.137413793103448" height="4.137413793103448" rx="0"></rect>
<rect x="138.6133620689655" y="149.64646551724138" width="4.137413793103448" height="4.137413793103448" rx="0"></rect>
<rect x="149.64646551724138" y="149.64646551724138" width="4.137413793103448" height="4.137413793103448" rx="0"></rect>
<rect x="50.348534482758616" y="155.1630172413793" width="4.137413793103448" height="4.137413793103448" rx="0"></rect>
<rect x="55.86508620689654" y="155.1630172413793" width="4.137413793103448" height="4.137413793103448" rx="0"></rect>
<rect x="61.381637931034476" y="155.1630172413793" width="4.137413793103448" height="4.137413793103448" rx="0"></rect>
<rect x="66.89818965517242" y="155.1630172413793" width="4.137413793103448" height="4.137413793103448" rx="0"></rect>
<rect x="72.41474137931034" y="155.1630172413793" width="4.137413793103448" height="4.137413793103448" rx="0"></rect>
<rect x="83.44784482758621" y="155.1630172413793" width="4.137413793103448" height="4.137413793103448" rx="0"></rect>
<rect x="94.48094827586206" y="155.1630172413793" width="4.137413793103448" height="4.137413793103448" rx="0"></rect>
<rect x="105.51405172413793" y="155.1630172413793" width="4.137413793103448" height="4.137413793103448" rx="0"></rect>
<rect x="111.03060344827585" y="155.1630172413793" width="4.137413793103448" height="4.137413793103448" rx="0"></rect>
<rect x="116.5471551724138" y="155.1630172413793" width="4.137413793103448" height="4.137413793103448" rx="0"></rect>
<rect x="122.06370689655172" y="155.1630172413793" width="4.137413793103448" height="4.137413793103448" rx="0"></rect>
<rect x="133.0968103448276" y="155.1630172413793" width="4.137413793103448" height="4.137413793103448" rx="0"></rect>
<rect x="144.12991379310344" y="155.1630172413793" width="4.137413793103448" height="4.137413793103448" rx="0"></rect>
</g>
<g>
<rect x="2.7582758620689654" y="2.7582758620689654" width="33.099310344827586" fill="none" height="33.099310344827586" stroke-width="5.516551724137931" stroke="#222222" rx="5.516551724137931"></rect>
<rect x="11.033103448275861" y="11.033103448275861" width="16.549655172413793" fill="#222222" height="16.549655172413793" rx="2.7582758620689654"></rect>
<rect x="124.14241379310346" y="2.7582758620689654" width="33.099310344827586" fill="none" height="33.099310344827586" stroke-width="5.516551724137931" stroke="#222222" rx="5.516551724137931"></rect>
<rect x="132.41724137931035" y="11.033103448275861" width="16.549655172413793" fill="#222222" height="16.549655172413793" rx="2.7582758620689654"></rect>
<rect x="2.7582758620689654" y="124.14241379310346" width="33.099310344827586" fill="none" height="33.099310344827586" stroke-width="5.516551724137931" stroke="#222222" rx="5.516551724137931"></rect>
<rect x="11.033103448275861" y="132.41724137931035" width="16.549655172413793" fill="#222222" height="16.549655172413793" rx="2.7582758620689654"></rect>
</g>
</g>
</svg>